<?xml version="1.0" encoding="UTF-8"?>
<svg width="28px" height="28px" viewBox="0 0 28 28" version="1.1" xmlns="http://www.w3.org/2000/svg" xmlns:xlink="http://www.w3.org/1999/xlink">
    <!-- Generator: Sketch 46.2 (44496) - http://www.bohemiancoding.com/sketch -->
    <title>Roulette_paramètre_fini</title>
    <desc>Created with Sketch.</desc>
    <defs></defs>
    <g id="Page-1" stroke="none" stroke-width="1" fill="none" fill-rule="evenodd">
        <g id="Profil-perso_sans_insta" transform="translate(-327.000000, -37.000000)" fill-rule="nonzero" fill="#FFFFFF">
            <g id="Roulette_paramètre_fini" transform="translate(327.170000, 37.170000)">
                <g id="Group" transform="translate(0.000000, 10.470638)">
                    <path d="M8.26017026,2.96668087 C8.26017026,2.03595746 8.49285111,1.22157447 8.9000426,0.465361705 L1.16340426,0.465361705 C0.523531918,0.465361705 0,0.988893623 0,1.62876597 L0,4.53727662 C0,5.17714897 0.523531918,5.70068088 1.16340426,5.70068088 L9.07455324,5.70068088 C8.55102132,4.8862979 8.26017026,3.95557449 8.26017026,2.96668087 Z" id="Shape"></path>
                    <path d="M25.943915,0.465361705 L17.8582554,0.465361705 C18.2654469,1.22157447 18.4981278,2.03595746 18.4981278,2.96668087 C18.4981278,3.95557449 18.2072767,4.8862979 17.6837448,5.70068088 L25.943915,5.70068088 C26.5837874,5.70068088 27.1073193,5.17714897 27.1073193,4.53727662 L27.1073193,1.62876597 C27.1073193,0.988893623 26.5837874,0.465361705 25.943915,0.465361705 Z" id="Shape"></path>
                </g>
                <g id="Group" transform="translate(2.326809, 2.326809)">
                    <path d="M6.16604259,12.6229362 L0.639872344,18.2072767 C0.174510639,18.6144682 0.174510639,19.370681 0.639872344,19.8360427 L2.6758298,21.8720001 C3.08302129,22.3373618 3.83923406,22.3373618 4.30459577,21.8720001 L10.0052767,16.113149 C8.20200005,15.7641277 6.68957451,14.4262128 6.16604259,12.6229362 Z" id="Shape"></path>
                    <path d="M21.8138299,2.61765959 L19.7778725,0.581702131 C19.370681,0.116340426 18.6144682,0.116340426 18.1491065,0.581702131 L12.564766,6.2242128 C14.3098724,6.74774472 15.7059575,8.20200005 16.0549788,10.0634469 L21.8138299,4.24642556 C22.2791916,3.83923406 22.2791916,3.08302129 21.8138299,2.61765959 Z" id="Shape"></path>
                </g>
                <g id="Group" transform="translate(10.470638, 0.000000)">
                    <path d="M2.90851065,8.31834047 C3.95557449,8.31834047 4.8862979,8.60919154 5.70068088,9.13272346 L5.70068088,1.16340426 C5.70068088,0.523531918 5.17714897,0 4.53727662,0 L1.62876597,0 C0.988893623,0 0.465361705,0.523531918 0.465361705,1.16340426 L0.465361705,8.95821282 C1.16340426,8.55102132 2.03595746,8.31834047 2.90851065,8.31834047 Z" id="Shape"></path>
                    <path d="M2.90851065,18.556298 C2.03595746,18.556298 1.16340426,18.3236171 0.465361705,17.9164256 L0.465361705,25.943915 C0.465361705,26.5837874 0.988893623,27.1073193 1.62876597,27.1073193 L4.53727662,27.1073193 C5.17714897,27.1073193 5.70068088,26.5837874 5.70068088,25.943915 L5.70068088,17.741915 C4.8862979,18.2654469 3.95557449,18.556298 2.90851065,18.556298 Z" id="Shape"></path>
                </g>
                <g id="Group" transform="translate(2.326809, 2.326809)">
                    <path d="M21.8720001,18.1491065 L15.9968086,12.3320852 C15.5314469,14.1353618 14.1353618,15.5314469 12.3902554,16.0549788 L18.2072767,21.8138299 C18.6144682,22.2791916 19.370681,22.2791916 19.8360427,21.8138299 L21.8720001,19.7778725 C22.3373618,19.370681 22.3373618,18.6144682 21.8720001,18.1491065 Z" id="Shape"></path>
                    <path d="M9.7725958,6.16604259 L4.24642556,0.639872344 C3.83923406,0.174510639 3.08302129,0.174510639 2.61765959,0.639872344 L0.581702131,2.6758298 C0.116340426,3.08302129 0.116340426,3.83923406 0.581702131,4.30459577 L6.10787237,9.7725958 C6.57323408,8.02748941 8.02748941,6.63140429 9.7725958,6.16604259 Z" id="Shape"></path>
                </g>
                <path d="M13.2628086,3.37387236 C7.62029791,3.37387236 3.08302129,7.91114898 3.08302129,13.5536597 C3.08302129,19.1961703 7.62029791,23.7334469 13.2628086,23.7334469 C18.9053193,23.7334469 23.4425959,19.1961703 23.4425959,13.5536597 C23.4425959,7.91114898 18.9053193,3.37387236 13.2628086,3.37387236 Z M13.379149,18.556298 C10.5288086,18.556298 8.26017026,16.2876597 8.26017026,13.4373192 C8.26017026,10.5869788 10.5288086,8.31834047 13.379149,8.31834047 C16.2294895,8.31834047 18.4981278,10.5869788 18.4981278,13.4373192 C18.4981278,16.2876597 16.2294895,18.556298 13.379149,18.556298 Z" id="Shape"></path>
            </g>
        </g>
    </g>
</svg>